<svg xmlns="http://www.w3.org/2000/svg" viewBox="0 0 660 660"><defs><style>.cls-1{isolation:isolate;}.cls-2{fill:#f5e4e5;}.cls-3{fill:#414042;}.cls-3,.cls-4{fill-rule:evenodd;}.cls-4{fill:#231f20;opacity:0.05;mix-blend-mode:multiply;}</style></defs><title>Asset 1</title><g class="cls-1"><g id="Layer_2" data-name="Layer 2"><g id="Layer_1-2" data-name="Layer 1"><circle class="cls-2" cx="330" cy="330" r="330"/><polygon class="cls-3" points="254.02 437.83 208.29 297.1 328 210.13 447.72 297.1 401.99 437.83 254.02 437.83"/><path class="cls-3" d="M409.1,18.54Q432,43.11,452,68.85A758.83,758.83,0,0,0,328,86.58,758.55,758.55,0,0,0,204,68.85Q224,43.16,246.9,18.54A837.17,837.17,0,0,1,409.1,18.54Z"/><path class="cls-3" d="M58.58,157.56Q89,143.42,119.69,132.29A758.18,758.18,0,0,0,98.23,255.71,759.66,759.66,0,0,0,43,368.18q-18.24-27-34.58-56.36A837.48,837.48,0,0,1,58.58,157.56Z"/><path class="cls-3" d="M88.24,530.82q-4-33.32-5.15-65.93a757.54,757.54,0,0,0,110.75,58.55,759.38,759.38,0,0,0,89.91,87.24q-31.33,9-64.29,15.47A836.84,836.84,0,0,1,88.24,530.82Z"/><path class="cls-3" d="M442,627.5Q409.1,621.05,377.73,612a759.38,759.38,0,0,0,89.91-87.24,759.48,759.48,0,0,0,110.75-58.55q-1.12,32.58-5.15,65.92A837.54,837.54,0,0,1,442,627.5Z"/><path class="cls-3" d="M647.61,309.06q-16.3,29.32-34.59,56.36A758,758,0,0,0,557.84,253a759.56,759.56,0,0,0-21.46-123.43q30.63,11.15,61.1,25.27A837,837,0,0,1,647.61,309.06Z"/><path class="cls-4" d="M545.43,80A387.06,387.06,0,0,1,556,170c0,213.18-172.82,386-386,386a387.06,387.06,0,0,1-90-10.55A329.24,329.24,0,0,0,330,660c182.25,0,330-147.75,330-330A329.24,329.24,0,0,0,545.43,80Z"/></g></g></g></svg>